<svg version="1.1" xmlns="http://www.w3.org/2000/svg" viewBox="0 0 1621.8944208231378 666.5181360142954" width="1621.8944208231378" height="666.5181360142954">
  <!-- svg-source:excalidraw -->
  
  <defs>
    <style class="style-fonts">
      @font-face {
        font-family: "Virgil";
        src: url("https://excalidraw.com/Virgil.woff2");
      }
      @font-face {
        font-family: "Cascadia";
        src: url("https://excalidraw.com/Cascadia.woff2");
      }
      @font-face {
        font-family: "Assistant";
        src: url("https://excalidraw.com/Assistant-Regular.woff2");
      }
    </style>
    
  </defs>
  <rect x="0" y="0" width="1621.8944208231378" height="666.5181360142954" fill="#ffffff"></rect><g transform="translate(599.9718691406424 10) rotate(0 122.54966022725353 43.549986810708525)"><text x="0" y="61.03966151388907" font-family="Virgil, Segoe UI Emoji" font-size="69.67997889713364px" fill="#1e1e1e" text-anchor="start" style="white-space: pre;" direction="ltr" dominant-baseline="alphabetic">Master</text></g><g stroke-linecap="round" transform="translate(-16.030530257562532 438.651376777242) rotate(88.90356391600696 192 21)"><path d="M10.5 0 C143.57 -1.14, 278.37 -1.17, 373.5 0 M10.5 0 C118.3 2.19, 226.58 2.19, 373.5 0 M373.5 0 C380.26 -1, 385.65 3.02, 384 10.5 M373.5 0 C381.9 -0.89, 381.88 5.77, 384 10.5 M384 10.5 C385.96 14.02, 384.61 20.83, 384 31.5 M384 10.5 C384.52 15.94, 384.47 22.58, 384 31.5 M384 31.5 C382.43 37.48, 380.95 42.33, 373.5 42 M384 31.5 C385.08 36.32, 380.65 41.37, 373.5 42 M373.5 42 C279.71 39.79, 185.95 39.73, 10.5 42 M373.5 42 C251.89 44.64, 130.61 44.56, 10.5 42 M10.5 42 C3.01 42.87, 0.01 38.39, 0 31.5 M10.5 42 C5.34 43.54, 2.1 37.27, 0 31.5 M0 31.5 C1.08 25.45, 0.26 16.4, 0 10.5 M0 31.5 C-0.95 25.41, 0.12 19.16, 0 10.5 M0 10.5 C-1.73 4.14, 4.68 1.44, 10.5 0 M0 10.5 C2.22 2.55, 3.61 1.6, 10.5 0" stroke="#1e1e1e" stroke-width="2" fill="none"></path></g><g stroke-linecap="round" transform="translate(141.84430661808392 296.9193192790739) rotate(88.90356391600696 31.75 12.5)"><path d="M6.25 0 C22.41 -1.01, 38.29 1.93, 57.25 0 M6.25 0 C17.64 0.39, 29.11 -0.89, 57.25 0 M57.25 0 C63.06 -0.48, 64.72 1.31, 63.5 6.25 M57.25 0 C59.3 2.27, 62.13 2.69, 63.5 6.25 M63.5 6.25 C63.97 9.48, 63.41 12.88, 63.5 18.75 M63.5 6.25 C63.8 10.34, 63.06 13.88, 63.5 18.75 M63.5 18.75 C63.95 23.25, 62.36 23.11, 57.25 25 M63.5 18.75 C63.65 22.29, 60.47 22.97, 57.25 25 M57.25 25 C45.37 23.02, 33 23.51, 6.25 25 M57.25 25 C36.95 26.38, 17.41 25.94, 6.25 25 M6.25 25 C2.09 24.89, 1.6 24.26, 0 18.75 M6.25 25 C4.19 23.77, 1.61 21.58, 0 18.75 M0 18.75 C0.03 15.94, -0.4 12.57, 0 6.25 M0 18.75 C0.2 14.81, -0.42 12.18, 0 6.25 M0 6.25 C1.18 3.52, 4.01 -0.83, 6.25 0 M0 6.25 C0.11 3.68, 2.89 2.11, 6.25 0" stroke="#1e1e1e" stroke-width="2" fill="none"></path></g><g stroke-linecap="round" transform="translate(143.76500751320555 371.14615679807133) rotate(88.90356391600696 31.75 12.5)"><path d="M6.25 0 C18.21 1.94, 28.77 -0.52, 57.25 0 M6.25 0 C25.38 -0.9, 45.57 -0.64, 57.25 0 M57.25 0 C62.64 -0.77, 61.66 4.05, 63.5 6.25 M57.25 0 C60.05 0.61, 62.28 4.27, 63.5 6.25 M63.5 6.25 C63.33 9.5, 63.76 12.39, 63.5 18.75 M63.5 6.25 C63.06 9.05, 63.69 12.59, 63.5 18.75 M63.5 18.75 C64.44 21.02, 61.55 24.46, 57.25 25 M63.5 18.75 C62.55 20.89, 60.14 25.31, 57.25 25 M57.25 25 C46.46 23.49, 36.07 23.56, 6.25 25 M57.25 25 C36.62 25.88, 16.49 25.39, 6.25 25 M6.25 25 C3.68 26.34, 1.83 21.84, 0 18.75 M6.25 25 C3.7 23.66, -1.22 24.01, 0 18.75 M0 18.75 C-0.35 13.91, -0.37 7.91, 0 6.25 M0 18.75 C-0.56 15.66, 0.35 12.61, 0 6.25 M0 6.25 C1.93 1.26, 2.18 1.39, 6.25 0 M0 6.25 C0.81 4.19, 3.14 1.99, 6.25 0" stroke="#1e1e1e" stroke-width="2" fill="none"></path></g><g stroke-linecap="round" transform="translate(144.6428371875627 443.14254153413117) rotate(88.90356391600696 31.75 12.5)"><path d="M6.25 0 C16.65 -1.27, 31.58 -0.62, 57.25 0 M6.25 0 C26.36 0.01, 45.43 -0.13, 57.25 0 M57.25 0 C59.57 1.97, 62.31 2.61, 63.5 6.25 M57.25 0 C60.2 2.19, 61.73 2.72, 63.5 6.25 M63.5 6.25 C63.71 10.7, 62.85 14.53, 63.5 18.75 M63.5 6.25 C63.54 10.33, 63.7 13.6, 63.5 18.75 M63.5 18.75 C63.63 22.37, 60.59 23.23, 57.25 25 M63.5 18.75 C62.22 23.22, 59.69 25.67, 57.25 25 M57.25 25 C47.8 23.68, 36.81 23.71, 6.25 25 M57.25 25 C37.5 25.17, 18.53 25.89, 6.25 25 M6.25 25 C3.91 23.93, 1.4 21.75, 0 18.75 M6.25 25 C0.86 26.1, 1.98 23.07, 0 18.75 M0 18.75 C-0.33 13.53, -0.42 10.84, 0 6.25 M0 18.75 C0.48 16.57, 0.71 13.23, 0 6.25 M0 6.25 C0.1 3.47, 2.79 1.84, 6.25 0 M0 6.25 C1.06 4.07, 3.04 -1.16, 6.25 0" stroke="#1e1e1e" stroke-width="2" fill="none"></path></g><g stroke-linecap="round" transform="translate(147.20217711007444 524.6084839834825) rotate(88.90356391600696 31.75 12.5)"><path d="M6.25 0 C27.18 0.01, 46.58 -0.02, 57.25 0 M6.25 0 C19.61 -0.26, 30.83 1.11, 57.25 0 M57.25 0 C60.23 0.53, 62.44 3.99, 63.5 6.25 M57.25 0 C59.65 0.64, 63.76 1.7, 63.5 6.25 M63.5 6.25 C62.89 10.96, 63.75 13.68, 63.5 18.75 M63.5 6.25 C63.82 8.77, 63.57 12.3, 63.5 18.75 M63.5 18.75 C62.68 21.15, 60.31 25.27, 57.25 25 M63.5 18.75 C61.77 23.59, 59.57 25.78, 57.25 25 M57.25 25 C46.76 23.72, 34.03 24.25, 6.25 25 M57.25 25 C40.54 25.64, 23.15 24.44, 6.25 25 M6.25 25 C3.49 23.83, -1.06 23.87, 0 18.75 M6.25 25 C4.06 25.16, 0.52 22.28, 0 18.75 M0 18.75 C-0.42 15.16, -1.08 10.19, 0 6.25 M0 18.75 C0.53 14.34, -0.04 10.88, 0 6.25 M0 6.25 C0.7 3.92, 3 1.73, 6.25 0 M0 6.25 C0.96 0.92, 0.01 1.72, 6.25 0" stroke="#1e1e1e" stroke-width="2" fill="none"></path></g><g stroke-linecap="round" transform="translate(149.16593232165087 601.0849095371725) rotate(88.90356391600696 31.75 12.5)"><path d="M6.25 0 C20.91 -0.19, 31.44 1.7, 57.25 0 M6.25 0 C19.4 1.18, 33.79 0.46, 57.25 0 M57.25 0 C60.35 1.9, 61.96 2.64, 63.5 6.25 M57.25 0 C61.68 -0.38, 64.34 2.5, 63.5 6.25 M63.5 6.25 C63.66 9.58, 62.8 15.15, 63.5 18.75 M63.5 6.25 C63.6 10.04, 63.3 13.61, 63.5 18.75 M63.5 18.75 C62.39 23.18, 59.91 25.58, 57.25 25 M63.5 18.75 C61.66 23.7, 60.15 27.03, 57.25 25 M57.25 25 C46.34 24.26, 32.8 24.75, 6.25 25 M57.25 25 C43.14 24.81, 27.89 24.76, 6.25 25 M6.25 25 C1.02 25.95, 1.72 23.05, 0 18.75 M6.25 25 C2.6 24.37, -0.02 22.24, 0 18.75 M0 18.75 C-1.07 15.1, 0.45 14.36, 0 6.25 M0 18.75 C-0.09 14.54, 0.1 10.03, 0 6.25 M0 6.25 C0.92 3.81, 2.91 -1.01, 6.25 0 M0 6.25 C-2.07 3.81, 1.14 0.41, 6.25 0" stroke="#1e1e1e" stroke-width="2" fill="none"></path></g><g stroke-linecap="round" transform="translate(297.01388816298504 437.81546078457274) rotate(88.90356391600696 192 21)"><path d="M10.5 0 C139 1.06, 270.03 1.33, 373.5 0 M10.5 0 C89.5 0.47, 168.79 -0.3, 373.5 0 M373.5 0 C381.21 1.59, 385.98 2.19, 384 10.5 M373.5 0 C381.06 -0.73, 384.15 5.55, 384 10.5 M384 10.5 C383 17.11, 385.04 21.35, 384 31.5 M384 10.5 C384.81 17.24, 384.56 24.07, 384 31.5 M384 31.5 C385 37.02, 380.36 41.7, 373.5 42 M384 31.5 C385.77 38.57, 382.8 41.8, 373.5 42 M373.5 42 C298.55 44.16, 222.93 42.32, 10.5 42 M373.5 42 C252.94 39.96, 132.95 39.68, 10.5 42 M10.5 42 C2.08 42.28, 0.99 39.98, 0 31.5 M10.5 42 C4.44 41.8, 1.54 36.59, 0 31.5 M0 31.5 C1.08 24.6, 0.65 18.74, 0 10.5 M0 31.5 C0.65 23.87, -0.21 18.29, 0 10.5 M0 10.5 C-0.52 2.83, 4.9 -0.38, 10.5 0 M0 10.5 C0.12 5.34, 5.16 -0.14, 10.5 0" stroke="#1e1e1e" stroke-width="2" fill="none"></path></g><g stroke-linecap="round" transform="translate(454.88872503863104 296.0834032864047) rotate(88.90356391600696 31.75 12.5)"><path d="M6.25 0 C20.51 0.67, 31.36 -0.66, 57.25 0 M6.25 0 C20.42 -1.04, 36.18 0.6, 57.25 0 M57.25 0 C63.39 -1.31, 63.99 1.45, 63.5 6.25 M57.25 0 C61.57 2.05, 63.49 1.24, 63.5 6.25 M63.5 6.25 C64.14 8.69, 63.88 14.5, 63.5 18.75 M63.5 6.25 C63.8 9.26, 63.89 12.45, 63.5 18.75 M63.5 18.75 C63.36 22.61, 62.96 25.06, 57.25 25 M63.5 18.75 C65.8 22.72, 59.28 25.73, 57.25 25 M57.25 25 C38.64 23.88, 21.68 26.9, 6.25 25 M57.25 25 C45.7 23.81, 33.67 24.89, 6.25 25 M6.25 25 C3.08 26.48, 0.82 22.74, 0 18.75 M6.25 25 C3.62 23.09, 0.62 22.59, 0 18.75 M0 18.75 C0.32 15.38, 0.31 11.24, 0 6.25 M0 18.75 C-0.18 14.26, -0.25 8.72, 0 6.25 M0 6.25 C1.4 1.7, 2.19 1.6, 6.25 0 M0 6.25 C1.66 1.94, 1.77 -1.23, 6.25 0" stroke="#1e1e1e" stroke-width="2" fill="none"></path></g><g stroke-linecap="round" transform="translate(456.80942593375266 370.3102408054021) rotate(88.90356391600696 31.75 12.5)"><path d="M6.25 0 C20.72 -0.77, 38.24 -1.28, 57.25 0 M6.25 0 C23.89 1.22, 41.81 -0.23, 57.25 0 M57.25 0 C61.91 -0.64, 63.63 3.86, 63.5 6.25 M57.25 0 C61.41 -0.84, 63.08 1.03, 63.5 6.25 M63.5 6.25 C64.01 11.4, 63.15 14.9, 63.5 18.75 M63.5 6.25 C63.86 9.16, 63.5 12.9, 63.5 18.75 M63.5 18.75 C65.04 22.98, 63.41 24.83, 57.25 25 M63.5 18.75 C61.36 23.65, 62.68 25.33, 57.25 25 M57.25 25 C38.87 26.15, 17.72 23.59, 6.25 25 M57.25 25 C43.73 24.66, 32.13 25.26, 6.25 25 M6.25 25 C2.9 24.83, 1.34 21.26, 0 18.75 M6.25 25 C2.7 24.67, 0.41 24.13, 0 18.75 M0 18.75 C0.34 15.46, 1.12 12.21, 0 6.25 M0 18.75 C-0.14 15.65, 0.45 12.85, 0 6.25 M0 6.25 C0.1 3.69, 3.53 -0.12, 6.25 0 M0 6.25 C-0.31 0.85, 0.89 -0.09, 6.25 0" stroke="#1e1e1e" stroke-width="2" fill="none"></path></g><g stroke-linecap="round" transform="translate(457.68725560810935 442.306625541462) rotate(88.90356391600696 31.75 12.5)"><path d="M6.25 0 C23.26 -0.94, 41.44 -1.1, 57.25 0 M6.25 0 C18.25 -1.06, 28.51 -0.72, 57.25 0 M57.25 0 C61.55 1.78, 63.49 1.35, 63.5 6.25 M57.25 0 C60.99 -1.06, 63.86 3.37, 63.5 6.25 M63.5 6.25 C63.13 9.67, 63.17 12.03, 63.5 18.75 M63.5 6.25 C63.52 9.26, 64.04 12.47, 63.5 18.75 M63.5 18.75 C65.5 22.74, 59.56 25.64, 57.25 25 M63.5 18.75 C64.76 23.25, 63.09 24.41, 57.25 25 M57.25 25 C44.23 24.36, 33.26 25.17, 6.25 25 M57.25 25 C47.27 25.81, 36.7 24.99, 6.25 25 M6.25 25 C3.42 23.34, 0.53 22.63, 0 18.75 M6.25 25 C2.49 26.21, -0.05 23.63, 0 18.75 M0 18.75 C1.12 15.3, -0.9 9.87, 0 6.25 M0 18.75 C0.47 14.05, 0.06 10.08, 0 6.25 M0 6.25 C1.44 1.96, 1.81 -1.07, 6.25 0 M0 6.25 C-1.19 1.99, -0.05 -0.66, 6.25 0" stroke="#1e1e1e" stroke-width="2" fill="none"></path></g><g stroke-linecap="round" transform="translate(460.246595530622 523.7725679908133) rotate(88.90356391600696 31.75 12.5)"><path d="M6.25 0 C20.85 -0.97, 32.22 0.98, 57.25 0 M6.25 0 C25.85 0.02, 45.03 1.22, 57.25 0 M57.25 0 C61.41 -0.73, 63.13 1.16, 63.5 6.25 M57.25 0 C61.78 1.29, 61.51 2.9, 63.5 6.25 M63.5 6.25 C63.08 11.65, 62.81 16.79, 63.5 18.75 M63.5 6.25 C63.97 9.09, 64.12 11.84, 63.5 18.75 M63.5 18.75 C61.64 23.55, 62.51 25.29, 57.25 25 M63.5 18.75 C65.17 22.33, 59.71 25.72, 57.25 25 M57.25 25 C37.07 24.52, 16.96 23.32, 6.25 25 M57.25 25 C41.64 25.29, 25.89 24.55, 6.25 25 M6.25 25 C2.62 24.72, 0.36 23.97, 0 18.75 M6.25 25 C2.04 25.72, 1.11 23.62, 0 18.75 M0 18.75 C-0.98 14.39, 0.72 10.06, 0 6.25 M0 18.75 C-0.05 15.92, 0.36 12.05, 0 6.25 M0 6.25 C-0.27 1.01, 1.05 -0.08, 6.25 0 M0 6.25 C-2.14 1.42, 2.59 0.2, 6.25 0" stroke="#1e1e1e" stroke-width="2" fill="none"></path></g><g stroke-linecap="round" transform="translate(462.21035074219844 600.2489935445033) rotate(88.90356391600696 31.75 12.5)"><path d="M6.25 0 C17.09 1.02, 32.88 2.3, 57.25 0 M6.25 0 C18.27 1.05, 30.16 -0.2, 57.25 0 M57.25 0 C61.05 -0.92, 63.81 3.2, 63.5 6.25 M57.25 0 C59.43 0.81, 65.72 1.31, 63.5 6.25 M63.5 6.25 C62.82 11.38, 62.54 15.17, 63.5 18.75 M63.5 6.25 C64.22 9.76, 63.01 13.57, 63.5 18.75 M63.5 18.75 C64.6 23.2, 62.87 24.49, 57.25 25 M63.5 18.75 C61.79 23.64, 63.17 23.26, 57.25 25 M57.25 25 C42.68 23.53, 32.17 25.93, 6.25 25 M57.25 25 C38.84 24.13, 19.36 24.81, 6.25 25 M6.25 25 C2.44 26.05, -0.04 23.54, 0 18.75 M6.25 25 C3.19 25.7, 0.8 25.05, 0 18.75 M0 18.75 C0.92 13.77, -0.33 10.31, 0 6.25 M0 18.75 C0.44 15.2, -0.09 11.4, 0 6.25 M0 6.25 C-1.03 2.01, 0.23 -0.57, 6.25 0 M0 6.25 C0.51 2.29, 0.38 2.1, 6.25 0" stroke="#1e1e1e" stroke-width="2" fill="none"></path></g><g stroke-linecap="round" transform="translate(588.6937087930883 435.7968475072625) rotate(88.90356391600696 192 21)"><path d="M10.5 0 C136.41 1.55, 261.14 1.4, 373.5 0 M10.5 0 C101.07 -2.03, 191.76 -2.58, 373.5 0 M373.5 0 C381.03 0.15, 382.77 4.33, 384 10.5 M373.5 0 C378.67 -1.23, 383.27 3.29, 384 10.5 M384 10.5 C382.98 18.78, 383.12 23.74, 384 31.5 M384 10.5 C384.63 16.37, 384.68 24.17, 384 31.5 M384 31.5 C382.93 40.33, 382.03 42.77, 373.5 42 M384 31.5 C384.44 37.98, 382.18 43.51, 373.5 42 M373.5 42 C261.17 41.67, 150.92 41.18, 10.5 42 M373.5 42 C242.62 40.41, 110.29 39.96, 10.5 42 M10.5 42 C3.42 40.12, -1.43 37.06, 0 31.5 M10.5 42 C1.98 43.73, 1.18 37.55, 0 31.5 M0 31.5 C0.74 27.97, 1.88 21.32, 0 10.5 M0 31.5 C0.89 26.66, -0.09 22.45, 0 10.5 M0 10.5 C1.22 3.3, 2.22 -1.27, 10.5 0 M0 10.5 C1.72 2.16, 5.65 0.8, 10.5 0" stroke="#1e1e1e" stroke-width="2" fill="none"></path></g><g stroke-linecap="round" transform="translate(746.5685456687343 294.06479000909445) rotate(88.90356391600696 31.75 12.5)"><path d="M6.25 0 C20.23 -0.12, 29.35 0.68, 57.25 0 M6.25 0 C26.54 -0.75, 46.93 -0.06, 57.25 0 M57.25 0 C60.19 0.83, 61.91 1.02, 63.5 6.25 M57.25 0 C60.69 -0.21, 64.32 3.56, 63.5 6.25 M63.5 6.25 C62.79 9.12, 63.67 13.31, 63.5 18.75 M63.5 6.25 C63.97 9.67, 63.24 13.34, 63.5 18.75 M63.5 18.75 C65.03 23.69, 61.8 24.55, 57.25 25 M63.5 18.75 C65.18 24.43, 61.59 24.36, 57.25 25 M57.25 25 C42.84 23.56, 27.9 23.09, 6.25 25 M57.25 25 C45 24.35, 33.84 24.08, 6.25 25 M6.25 25 C0.65 23.56, -1.32 24.42, 0 18.75 M6.25 25 C3.26 24.05, -2.24 22.66, 0 18.75 M0 18.75 C1.11 13.57, -0.81 10.49, 0 6.25 M0 18.75 C-0.17 15.6, 0.27 11.15, 0 6.25 M0 6.25 C-1.28 0.81, 3.58 -1.16, 6.25 0 M0 6.25 C2.15 2.89, -0.1 -1.65, 6.25 0" stroke="#1e1e1e" stroke-width="2" fill="none"></path></g><g stroke-linecap="round" transform="translate(748.4892465638559 368.29162752809185) rotate(88.90356391600696 31.75 12.5)"><path d="M6.25 0 C20.94 0.74, 39.56 -0.1, 57.25 0 M6.25 0 C23.13 0.39, 38.87 0.73, 57.25 0 M57.25 0 C59.83 -1.07, 62.86 1.9, 63.5 6.25 M57.25 0 C62.24 1.47, 62.87 0.76, 63.5 6.25 M63.5 6.25 C63.68 11.02, 62.94 16.03, 63.5 18.75 M63.5 6.25 C63.24 9.51, 64.06 11.88, 63.5 18.75 M63.5 18.75 C63.88 22.46, 62.87 26.31, 57.25 25 M63.5 18.75 C63.67 22.28, 61.41 23.61, 57.25 25 M57.25 25 C44.54 22.89, 27.92 26.41, 6.25 25 M57.25 25 C41.69 23.72, 25.49 23.94, 6.25 25 M6.25 25 C0.76 26.5, 1.03 22.09, 0 18.75 M6.25 25 C-0.15 24.74, 0.71 23.74, 0 18.75 M0 18.75 C-0.88 14.55, -0.09 11.45, 0 6.25 M0 18.75 C0.39 14.71, -0.39 10.4, 0 6.25 M0 6.25 C1.49 0.92, 3.96 0.7, 6.25 0 M0 6.25 C-2.18 0.44, 3.34 1.93, 6.25 0" stroke="#1e1e1e" stroke-width="2" fill="none"></path></g><g stroke-linecap="round" transform="translate(749.3670762382126 440.28801226415175) rotate(88.90356391600696 31.75 12.5)"><path d="M6.25 0 C23.28 -0.3, 36.98 -0.01, 57.25 0 M6.25 0 C17.8 0.37, 29.79 -0.57, 57.25 0 M57.25 0 C60.78 -0.18, 64.21 3.37, 63.5 6.25 M57.25 0 C60.78 -1.33, 64.92 0.92, 63.5 6.25 M63.5 6.25 C63.03 10.2, 62.47 13.47, 63.5 18.75 M63.5 6.25 C63.91 10.56, 63.55 14.24, 63.5 18.75 M63.5 18.75 C64.96 24.23, 61.56 24.45, 57.25 25 M63.5 18.75 C63.5 21.52, 60.81 26.02, 57.25 25 M57.25 25 C43.85 26.29, 33.37 23.43, 6.25 25 M57.25 25 C44.68 23.8, 32.88 25.27, 6.25 25 M6.25 25 C3.11 24.17, -1.95 22.69, 0 18.75 M6.25 25 C2.79 25.82, 0.84 25.05, 0 18.75 M0 18.75 C0.1 17.16, 0.3 13.23, 0 6.25 M0 18.75 C-0.48 13.37, 0.39 8.42, 0 6.25 M0 6.25 C1.87 2.78, 0.19 -1.43, 6.25 0 M0 6.25 C1.26 4.02, 3.42 -0.61, 6.25 0" stroke="#1e1e1e" stroke-width="2" fill="none"></path></g><g stroke-linecap="round" transform="translate(751.9264161607252 521.7539547135029) rotate(88.90356391600696 31.75 12.5)"><path d="M6.25 0 C23.9 0.21, 39.28 0.56, 57.25 0 M6.25 0 C21.14 -0.74, 37.3 -0.3, 57.25 0 M57.25 0 C62.13 1.28, 62.95 0.93, 63.5 6.25 M57.25 0 C62.84 -1.17, 62.51 2.53, 63.5 6.25 M63.5 6.25 C62.39 11.05, 63.76 13.59, 63.5 18.75 M63.5 6.25 C63.71 11, 64.05 16.44, 63.5 18.75 M63.5 18.75 C63.65 22.36, 61.41 23.79, 57.25 25 M63.5 18.75 C62.89 23.93, 59.92 26.43, 57.25 25 M57.25 25 C46.58 24.32, 34.38 25.37, 6.25 25 M57.25 25 C46.08 25.38, 36.75 24.22, 6.25 25 M6.25 25 C0.14 24.77, 0.62 23.63, 0 18.75 M6.25 25 C2.92 27.13, -1.92 21.52, 0 18.75 M0 18.75 C0.22 14.88, 1.23 12, 0 6.25 M0 18.75 C0.55 14.76, 0.67 11.71, 0 6.25 M0 6.25 C-1.9 0.65, 3.18 1.68, 6.25 0 M0 6.25 C1.34 1.48, 0.71 -1.33, 6.25 0" stroke="#1e1e1e" stroke-width="2" fill="none"></path></g><g stroke-linecap="round" transform="translate(753.8901713723017 598.2303802671931) rotate(88.90356391600696 31.75 12.5)"><path d="M6.25 0 C20.02 0.48, 36.4 -1.28, 57.25 0 M6.25 0 C23.34 0.18, 41.42 0.91, 57.25 0 M57.25 0 C60.87 -1.15, 64.73 1.07, 63.5 6.25 M57.25 0 C60.43 0.45, 63.97 1.18, 63.5 6.25 M63.5 6.25 C63.71 10.07, 64.54 16.18, 63.5 18.75 M63.5 6.25 C63.98 10.89, 63.57 14.54, 63.5 18.75 M63.5 18.75 C63.5 21.7, 60.89 25.88, 57.25 25 M63.5 18.75 C62 24.34, 59.37 23.37, 57.25 25 M57.25 25 C36.16 24.64, 15.89 23.28, 6.25 25 M57.25 25 C46.13 24.97, 33.01 25.27, 6.25 25 M6.25 25 C2.7 25.71, 0.73 24.77, 0 18.75 M6.25 25 C0.16 23.6, 0.01 22.96, 0 18.75 M0 18.75 C1.21 14.65, -0.14 8.22, 0 6.25 M0 18.75 C0.49 16.01, -0.69 12.39, 0 6.25 M0 6.25 C1.09 3.76, 3.25 -0.53, 6.25 0 M0 6.25 C-1.37 0.75, 1.41 1.61, 6.25 0" stroke="#1e1e1e" stroke-width="2" fill="none"></path></g><g stroke-linecap="round" transform="translate(33.59344781876871 169.4999560356951) rotate(0 147.4880999769473 25)"><path d="M12.5 0 C116.5 -1.97, 218.01 -0.97, 282.48 0 M12.5 0 C104.87 -1.71, 197.63 -1.64, 282.48 0 M282.48 0 C290.67 1.98, 295.35 5, 294.98 12.5 M282.48 0 C292.94 0.77, 293.66 4.66, 294.98 12.5 M294.98 12.5 C296.6 21.85, 293.73 29.35, 294.98 37.5 M294.98 12.5 C295.01 22.95, 294.81 32.73, 294.98 37.5 M294.98 37.5 C293.42 46.94, 292.17 50.23, 282.48 50 M294.98 37.5 C296.87 45.75, 288.99 48.24, 282.48 50 M282.48 50 C205.54 52.03, 127.11 49.97, 12.5 50 M282.48 50 C205.13 51.39, 126.77 51.15, 12.5 50 M12.5 50 C3.88 48.45, -0.77 46.63, 0 37.5 M12.5 50 C2.3 50.11, 1.81 47.19, 0 37.5 M0 37.5 C-0.51 29.08, -2.12 21.17, 0 12.5 M0 37.5 C-0.91 31.71, 0.83 26.56, 0 12.5 M0 12.5 C1.52 5.54, 5.63 1.16, 12.5 0 M0 12.5 C1.62 2.78, 3.94 1.08, 12.5 0" stroke="#1e1e1e" stroke-width="2" fill="none"></path></g><g transform="translate(64.66865816148675 180.11767387623723) rotate(0 117.21666717529297 12.5)"><text x="0" y="17.52" font-family="Virgil, Segoe UI Emoji" font-size="20px" fill="#1e1e1e" text-anchor="start" style="white-space: pre;" direction="ltr" dominant-baseline="alphabetic">explore titanic dataset</text></g><g stroke-linecap="round" transform="translate(407.38712770057964 168.04563035685516) rotate(0 72.20608353419584 25)"><path d="M12.5 0 C54.67 1.12, 94.1 1.31, 131.91 0 M12.5 0 C49.42 0.08, 87.65 0.42, 131.91 0 M131.91 0 C141.57 -1.74, 144.63 5.91, 144.41 12.5 M131.91 0 C142.23 1.74, 145.99 5.85, 144.41 12.5 M144.41 12.5 C144.39 22.39, 145.14 30.87, 144.41 37.5 M144.41 12.5 C145.49 18.95, 144.39 26.82, 144.41 37.5 M144.41 37.5 C145.73 46.77, 142.03 49.04, 131.91 50 M144.41 37.5 C145.94 47.3, 139.44 52.13, 131.91 50 M131.91 50 C100.88 48.89, 69.65 49.05, 12.5 50 M131.91 50 C91.27 49.22, 49.72 48.6, 12.5 50 M12.5 50 C3.94 48.94, 1.74 45.86, 0 37.5 M12.5 50 C5.91 47.92, 1.74 44.34, 0 37.5 M0 37.5 C0.67 32.36, 1.61 26.31, 0 12.5 M0 37.5 C-0.85 28.06, -1.03 19.38, 0 12.5 M0 12.5 C1.04 4.71, 4.34 -1.67, 12.5 0 M0 12.5 C2.15 3.59, 2.86 1.28, 12.5 0" stroke="#1e1e1e" stroke-width="2" fill="none"></path></g><g transform="translate(413.4365251937011 180.23326764022755) rotate(0 63.849998474121094 12.5)"><text x="0" y="17.52" font-family="Virgil, Segoe UI Emoji" font-size="20px" fill="#1e1e1e" text-anchor="start" style="white-space: pre;" direction="ltr" dominant-baseline="alphabetic">test model X</text></g><g stroke-linecap="round" transform="translate(620.6729159279298 164.1555922764855) rotate(0 162.33965424116354 25)"><path d="M12.5 0 C127.19 -0.56, 243.58 -3.04, 312.18 0 M12.5 0 C90.67 -0.08, 168.51 -0.1, 312.18 0 M312.18 0 C321.49 -0.8, 323.22 3.92, 324.68 12.5 M312.18 0 C318.43 1.17, 325.88 4.8, 324.68 12.5 M324.68 12.5 C323.97 19.09, 325.59 27.56, 324.68 37.5 M324.68 12.5 C325 18.49, 324.31 24.88, 324.68 37.5 M324.68 37.5 C325.85 47.29, 321.41 51.66, 312.18 50 M324.68 37.5 C323.59 43.9, 321.71 48.61, 312.18 50 M312.18 50 C251.01 51.23, 191.16 48.77, 12.5 50 M312.18 50 C233.78 51.09, 156.58 51.02, 12.5 50 M12.5 50 C5.34 51.91, 0.95 47.26, 0 37.5 M12.5 50 C3.29 50.84, 1.18 47.84, 0 37.5 M0 37.5 C1.77 32.38, -1.64 24.19, 0 12.5 M0 37.5 C-0.72 29.16, 0.58 19.29, 0 12.5 M0 12.5 C1.31 2.75, 3.43 1.93, 12.5 0 M0 12.5 C-0.77 4.47, 5.71 -1.38, 12.5 0" stroke="#1e1e1e" stroke-width="2" fill="none"></path></g><g transform="translate(637.1863781446696 174.55620219994677) rotate(0 147.76666259765625 12.5)"><text x="0" y="17.52" font-family="Virgil, Segoe UI Emoji" font-size="20px" fill="#1e1e1e" text-anchor="start" style="white-space: pre;" direction="ltr" dominant-baseline="alphabetic">train model with new features</text></g><g stroke-linecap="round" transform="translate(10 151.6121074119767) rotate(0 800.9472104115689 42)"><path d="M21 0 C497.56 4.96, 974.9 5.14, 1580.89 0 M21 0 C377.93 0.03, 734.66 0.53, 1580.89 0 M1580.89 0 C1596.14 -1.58, 1602.41 8.24, 1601.89 21 M1580.89 0 C1596.75 0.81, 1602.72 8.67, 1601.89 21 M1601.89 21 C1601.37 34.06, 1602.05 43.99, 1601.89 63 M1601.89 21 C1601.93 31.4, 1601.65 39.67, 1601.89 63 M1601.89 63 C1603.54 78.36, 1596.66 82.55, 1580.89 84 M1601.89 63 C1599.66 78.71, 1592.9 85.56, 1580.89 84 M1580.89 84 C988.69 83.72, 394.36 84.27, 21 84 M1580.89 84 C1015.08 82.6, 448.34 83.1, 21 84 M21 84 C5.79 82.55, -1.37 78.89, 0 63 M21 84 C7.58 83.91, -1.16 75.99, 0 63 M0 63 C-0.29 47.94, -1.31 29.02, 0 21 M0 63 C0.07 50.46, -0.96 39.01, 0 21 M0 21 C-1.68 6.04, 5.27 -0.08, 21 0 M0 21 C1.6 7.61, 7.38 -0.68, 21 0" stroke="#1e1e1e" stroke-width="2" fill="none"></path></g><g stroke-linecap="round" transform="translate(864.9374369447801 440.89280313899565) rotate(88.90356391600696 192.00000000000023 21)"><path d="M10.5 0 C118.93 -0.54, 229.46 0.19, 373.5 0 M10.5 0 C91.28 -1.19, 171.26 -0.95, 373.5 0 M373.5 0 C380.22 0.75, 383.48 2.82, 384 10.5 M373.5 0 C381.71 0, 382.81 1.86, 384 10.5 M384 10.5 C385.43 15.33, 382.75 21.5, 384 31.5 M384 10.5 C383.21 18.97, 383.32 26.63, 384 31.5 M384 31.5 C385.6 38.73, 380.5 43.86, 373.5 42 M384 31.5 C383.23 36.69, 381.3 43.45, 373.5 42 M373.5 42 C234.16 42.65, 96.8 42.91, 10.5 42 M373.5 42 C291.15 44.12, 208.17 43.87, 10.5 42 M10.5 42 C5.36 41.14, -0.64 38.02, 0 31.5 M10.5 42 C5.16 40.28, -1.11 38.17, 0 31.5 M0 31.5 C-0.96 22.5, 0.14 14.6, 0 10.5 M0 31.5 C0.88 26.47, 0.35 20.62, 0 10.5 M0 10.5 C-1.32 2.01, 3.77 1.95, 10.5 0 M0 10.5 C-1.89 2.05, 4.57 1.81, 10.5 0" stroke="#1e1e1e" stroke-width="2" fill="none"></path></g><g stroke-linecap="round" transform="translate(1022.8122738204261 299.16074564082754) rotate(88.90356391600696 31.75 12.5)"><path d="M6.25 0 C24.44 1.23, 37.92 0.49, 57.25 0 M6.25 0 C25.06 0.54, 43.01 0.2, 57.25 0 M57.25 0 C60.89 -0.68, 64.55 2.08, 63.5 6.25 M57.25 0 C60.22 -1.64, 61.72 0.35, 63.5 6.25 M63.5 6.25 C62.92 11.48, 64.45 15.75, 63.5 18.75 M63.5 6.25 C62.84 9.52, 63.88 12.01, 63.5 18.75 M63.5 18.75 C63.5 24.78, 60.75 23.43, 57.25 25 M63.5 18.75 C64.3 24.36, 63.32 24.53, 57.25 25 M57.25 25 C40.04 23.37, 17.71 23.21, 6.25 25 M57.25 25 C36.64 24.54, 17.96 24.55, 6.25 25 M6.25 25 C1.44 24.52, 1.45 21.42, 0 18.75 M6.25 25 C0.97 24.67, 1.43 21.71, 0 18.75 M0 18.75 C0.09 13.53, -0.53 9.33, 0 6.25 M0 18.75 C0.02 14.87, -0.5 10.89, 0 6.25 M0 6.25 C0.27 4.03, 0.44 -1.26, 6.25 0 M0 6.25 C1.07 3.89, 2.02 1.8, 6.25 0" stroke="#1e1e1e" stroke-width="2" fill="none"></path></g><g stroke-linecap="round" transform="translate(1024.7329747155477 373.387583159825) rotate(88.90356391600696 31.75 12.5)"><path d="M6.25 0 C20.19 0.2, 38.52 1.29, 57.25 0 M6.25 0 C23.21 0.01, 40.18 -0.71, 57.25 0 M57.25 0 C62.47 0, 62.46 0.66, 63.5 6.25 M57.25 0 C59.64 -1.74, 64.32 3.92, 63.5 6.25 M63.5 6.25 C64.28 11.2, 62.53 12.73, 63.5 18.75 M63.5 6.25 C63.89 11, 63.39 16.2, 63.5 18.75 M63.5 18.75 C62.83 21.35, 62.11 26.26, 57.25 25 M63.5 18.75 C65.4 22.45, 63.1 24.25, 57.25 25 M57.25 25 C44.66 23.32, 36.87 25.2, 6.25 25 M57.25 25 C43.09 24.34, 26.75 24.54, 6.25 25 M6.25 25 C3.53 23.51, -0.97 22.63, 0 18.75 M6.25 25 C3.52 23.8, 0.77 21.69, 0 18.75 M0 18.75 C-0.6 14.79, -0.05 13.86, 0 6.25 M0 18.75 C-0.43 14.21, 0.06 11.2, 0 6.25 M0 6.25 C-1.65 0.82, 3.01 1.57, 6.25 0 M0 6.25 C-0.06 3.88, 2.72 -1.18, 6.25 0" stroke="#1e1e1e" stroke-width="2" fill="none"></path></g><g stroke-linecap="round" transform="translate(1025.6108043899044 445.38396789588484) rotate(88.90356391600696 31.75 12.5)"><path d="M6.25 0 C25.97 1.48, 43.91 0.59, 57.25 0 M6.25 0 C24.98 -0.53, 44.76 -0.19, 57.25 0 M57.25 0 C60.38 -1.43, 61.95 0.57, 63.5 6.25 M57.25 0 C62.24 1.83, 63.68 0.83, 63.5 6.25 M63.5 6.25 C62.68 9.81, 64.52 14.72, 63.5 18.75 M63.5 6.25 C63.6 11.43, 63.39 14.95, 63.5 18.75 M63.5 18.75 C64.2 24.18, 63.07 24.59, 57.25 25 M63.5 18.75 C65.19 22.16, 59.54 27.11, 57.25 25 M57.25 25 C46.93 25.16, 32.75 23.64, 6.25 25 M57.25 25 C43.87 24.54, 31.86 24.03, 6.25 25 M6.25 25 C1.12 24.72, 1.25 21.87, 0 18.75 M6.25 25 C2.86 23.77, -1.6 22.95, 0 18.75 M0 18.75 C0.01 16.92, 0.39 13.55, 0 6.25 M0 18.75 C0.17 15.98, -0.43 11.59, 0 6.25 M0 6.25 C0.93 3.66, 2.03 1.56, 6.25 0 M0 6.25 C0.64 0.9, 0.22 2.28, 6.25 0" stroke="#1e1e1e" stroke-width="2" fill="none"></path></g><g stroke-linecap="round" transform="translate(1028.170144312417 526.8499103452361) rotate(88.90356391600696 31.75 12.5)"><path d="M6.25 0 C23.57 0.31, 40.93 -0.69, 57.25 0 M6.25 0 C24 0.17, 40.17 -0.54, 57.25 0 M57.25 0 C59.87 -1.51, 64.21 3.68, 63.5 6.25 M57.25 0 C61.6 -1.26, 65.39 3.65, 63.5 6.25 M63.5 6.25 C64.34 10.02, 64.25 16.96, 63.5 18.75 M63.5 6.25 C63.29 9.65, 63.72 14.42, 63.5 18.75 M63.5 18.75 C65.15 22.51, 62.88 24.34, 57.25 25 M63.5 18.75 C61.62 25.02, 60.02 23.33, 57.25 25 M57.25 25 C45.36 24.12, 32.75 26.99, 6.25 25 M57.25 25 C44.88 24.13, 30.57 24.74, 6.25 25 M6.25 25 C3.33 23.95, 0.67 21.85, 0 18.75 M6.25 25 C0.49 25.03, -1.93 21.81, 0 18.75 M0 18.75 C0.34 16.29, -0.36 12.59, 0 6.25 M0 18.75 C-0.53 15.53, 0.27 13.6, 0 6.25 M0 6.25 C-0.05 3.65, 2.64 -1.03, 6.25 0 M0 6.25 C-1.87 4.36, 2.94 1.65, 6.25 0" stroke="#1e1e1e" stroke-width="2" fill="none"></path></g><g stroke-linecap="round" transform="translate(1030.1338995239935 603.3263358989261) rotate(88.90356391600696 31.75 12.5)"><path d="M6.25 0 C27.11 -0.46, 45.83 -0.71, 57.25 0 M6.25 0 C19.28 -0.71, 32.58 -0.75, 57.25 0 M57.25 0 C62.13 1.59, 63.66 0.99, 63.5 6.25 M57.25 0 C63.31 1.56, 65.53 0.42, 63.5 6.25 M63.5 6.25 C64.44 9.79, 63.73 11.32, 63.5 18.75 M63.5 6.25 C63.68 11.56, 63.98 15.95, 63.5 18.75 M63.5 18.75 C64.97 22.26, 59.78 26.83, 57.25 25 M63.5 18.75 C62.11 21.24, 59.84 27.17, 57.25 25 M57.25 25 C39.77 26.6, 23.19 24.1, 6.25 25 M57.25 25 C42.68 24.48, 29.7 24.1, 6.25 25 M6.25 25 C2.76 23.93, -1.39 22.95, 0 18.75 M6.25 25 C0.15 23.9, -1.99 22.82, 0 18.75 M0 18.75 C-0.4 13.31, -0.96 9.67, 0 6.25 M0 18.75 C0.39 14.27, 0.09 9.3, 0 6.25 M0 6.25 C0.56 1.05, 0.46 1.98, 6.25 0 M0 6.25 C0.85 3.74, 2.01 1.85, 6.25 0" stroke="#1e1e1e" stroke-width="2" fill="none"></path></g><g stroke-linecap="round" transform="translate(1114.8093403595108 438.90899888354403) rotate(88.90356391600696 192.00000000000023 21)"><path d="M10.5 0 C132.88 -0.01, 253.89 0.98, 373.5 0 M10.5 0 C118.86 1.15, 228.42 2.13, 373.5 0 M373.5 0 C380.66 -1.09, 385.65 4.86, 384 10.5 M373.5 0 C382.53 -1.67, 381.76 5.21, 384 10.5 M384 10.5 C384.37 14.97, 386 18.78, 384 31.5 M384 10.5 C384.9 14.95, 384.81 19.47, 384 31.5 M384 31.5 C382.37 40.33, 379.29 40.55, 373.5 42 M384 31.5 C382.43 40.67, 381.08 41.91, 373.5 42 M373.5 42 C282.37 43.72, 192.03 45.03, 10.5 42 M373.5 42 C292.11 41.35, 210.15 41.34, 10.5 42 M10.5 42 C2.11 42.03, -1.68 37.54, 0 31.5 M10.5 42 C1.51 41.9, 1.6 39.11, 0 31.5 M0 31.5 C-1.42 25.12, 2.01 16.56, 0 10.5 M0 31.5 C-0.12 27.31, 0.18 21.04, 0 10.5 M0 10.5 C-1.62 5.48, 4.24 1.44, 10.5 0 M0 10.5 C-0.07 5.35, 1.74 -1.26, 10.5 0" stroke="#1e1e1e" stroke-width="2" fill="none"></path></g><g stroke-linecap="round" transform="translate(1272.6841772351554 297.17694138537587) rotate(88.90356391600696 31.75 12.5)"><path d="M6.25 0 C20.15 1.18, 35.42 -0.9, 57.25 0 M6.25 0 C18.27 1.18, 29.66 -0.16, 57.25 0 M57.25 0 C63.06 1.36, 65.27 0.63, 63.5 6.25 M57.25 0 C59.18 1.71, 61.5 3.64, 63.5 6.25 M63.5 6.25 C64.68 10.58, 62.53 16.19, 63.5 18.75 M63.5 6.25 C64.06 10.58, 63.09 15.9, 63.5 18.75 M63.5 18.75 C62.29 21.46, 60.05 26.89, 57.25 25 M63.5 18.75 C64.08 22.82, 60.26 23.99, 57.25 25 M57.25 25 C36.73 26.28, 15.67 23.87, 6.25 25 M57.25 25 C43.01 24.2, 27.41 24.75, 6.25 25 M6.25 25 C0.4 24.04, -1.73 22.83, 0 18.75 M6.25 25 C3.69 25.61, 0.38 22.24, 0 18.75 M0 18.75 C1.31 14.79, -0.7 13.48, 0 6.25 M0 18.75 C0.18 13.69, -0.5 9.9, 0 6.25 M0 6.25 C0.74 3.52, 2.02 1.61, 6.25 0 M0 6.25 C-1.76 0.83, 0.12 0.78, 6.25 0" stroke="#1e1e1e" stroke-width="2" fill="none"></path></g><g stroke-linecap="round" transform="translate(1274.604878130277 371.4037789043734) rotate(88.90356391600696 31.75 12.5)"><path d="M6.25 0 C20.21 -1.31, 32.76 -1.82, 57.25 0 M6.25 0 C17.77 -0.95, 29.97 0.27, 57.25 0 M57.25 0 C63.18 -1.45, 61.56 3.57, 63.5 6.25 M57.25 0 C59.42 1.56, 65.34 2.34, 63.5 6.25 M63.5 6.25 C62.63 10.43, 64.4 14.78, 63.5 18.75 M63.5 6.25 C63.08 10.32, 63.21 12.79, 63.5 18.75 M63.5 18.75 C62.13 24.8, 61.93 24.92, 57.25 25 M63.5 18.75 C62.34 21.9, 63.56 24.01, 57.25 25 M57.25 25 C42.08 24.4, 29.62 26.62, 6.25 25 M57.25 25 C43.93 24.74, 31.15 24.25, 6.25 25 M6.25 25 C0.36 24.92, 1.39 23.45, 0 18.75 M6.25 25 C2.46 24.32, -1.51 21.21, 0 18.75 M0 18.75 C-0.91 15.42, 0.86 10.88, 0 6.25 M0 18.75 C-0.54 14.64, 0.2 9.75, 0 6.25 M0 6.25 C-0.06 3.69, 0.55 -1.09, 6.25 0 M0 6.25 C-1.96 2.86, -0.11 -0.08, 6.25 0" stroke="#1e1e1e" stroke-width="2" fill="none"></path></g><g stroke-linecap="round" transform="translate(1275.4827078046337 443.40016364043316) rotate(88.90356391600696 31.75 12.5)"><path d="M6.25 0 C22.8 -1.28, 40.69 0.98, 57.25 0 M6.25 0 C26.44 0.96, 45.86 -0.45, 57.25 0 M57.25 0 C59.47 1.49, 61.76 3.44, 63.5 6.25 M57.25 0 C63.26 0.26, 63.5 4.22, 63.5 6.25 M63.5 6.25 C64.19 10.62, 63.15 13.83, 63.5 18.75 M63.5 6.25 C63.02 9.14, 62.97 13.52, 63.5 18.75 M63.5 18.75 C64.01 22.83, 60.41 24.12, 57.25 25 M63.5 18.75 C65.64 21.92, 60.68 24.45, 57.25 25 M57.25 25 C37.97 26, 18.22 25.43, 6.25 25 M57.25 25 C43.83 24.53, 31.23 24.97, 6.25 25 M6.25 25 C3.48 25.53, 0.33 22.33, 0 18.75 M6.25 25 C0.57 23.29, 0.31 25.16, 0 18.75 M0 18.75 C1.06 16, 1.06 13.66, 0 6.25 M0 18.75 C0.33 16.09, 0.08 13.04, 0 6.25 M0 6.25 C-1.53 0.99, 0.38 0.68, 6.25 0 M0 6.25 C-2.19 2, 0.35 -2.22, 6.25 0" stroke="#1e1e1e" stroke-width="2" fill="none"></path></g><g stroke-linecap="round" transform="translate(1278.0420477271464 524.8661060897846) rotate(88.90356391600696 31.75 12.5)"><path d="M6.25 0 C17.39 1.11, 33.15 0.55, 57.25 0 M6.25 0 C19.64 -1.07, 30.3 0.4, 57.25 0 M57.25 0 C59.68 1.35, 65.1 2.31, 63.5 6.25 M57.25 0 C61.41 2.14, 62.73 0.28, 63.5 6.25 M63.5 6.25 C63.32 11.35, 63.17 13.6, 63.5 18.75 M63.5 6.25 C63 11.73, 63.58 16.01, 63.5 18.75 M63.5 18.75 C62.49 22.04, 63.28 24.14, 57.25 25 M63.5 18.75 C62.77 22.37, 63.08 23.28, 57.25 25 M57.25 25 C43.37 25.99, 30.51 23.93, 6.25 25 M57.25 25 C41.01 24.71, 27.19 25.02, 6.25 25 M6.25 25 C2.41 24.41, -1.32 21.43, 0 18.75 M6.25 25 C2.39 27.24, -1.89 21.47, 0 18.75 M0 18.75 C0.88 14.77, -0.74 9.07, 0 6.25 M0 18.75 C-0.07 14.26, -0.52 8.43, 0 6.25 M0 6.25 C-1.7 2.76, 0.18 -0.07, 6.25 0 M0 6.25 C-1.74 -0.14, 1.32 -0.37, 6.25 0" stroke="#1e1e1e" stroke-width="2" fill="none"></path></g><g stroke-linecap="round" transform="translate(1280.0058029387228 601.3425316434746) rotate(88.90356391600696 31.75 12.5)"><path d="M6.25 0 C19.19 -0.03, 27.86 1.47, 57.25 0 M6.25 0 C24.05 1.11, 42.92 1.05, 57.25 0 M57.25 0 C63.02 0.23, 63.5 3.95, 63.5 6.25 M57.25 0 C60.65 -1.81, 64.3 3.53, 63.5 6.25 M63.5 6.25 C63.06 10.01, 64.62 15.06, 63.5 18.75 M63.5 6.25 C63.57 9.07, 63.1 11.66, 63.5 18.75 M63.5 18.75 C65.36 22.05, 60.78 24.52, 57.25 25 M63.5 18.75 C65.16 21.2, 60.31 24.67, 57.25 25 M57.25 25 C37.7 23.78, 20.32 23.49, 6.25 25 M57.25 25 C45.1 25.24, 31.71 24.68, 6.25 25 M6.25 25 C0.77 23.51, 0.27 24.86, 0 18.75 M6.25 25 C0.19 23.55, 1.07 24.73, 0 18.75 M0 18.75 C-0.74 14.02, 1.14 11.78, 0 6.25 M0 18.75 C-0.47 13.76, -0.53 9.66, 0 6.25 M0 6.25 C-1.91 2.01, 0.57 -1.93, 6.25 0 M0 6.25 C-0.76 1.71, 3.16 -0.86, 6.25 0" stroke="#1e1e1e" stroke-width="2" fill="none"></path></g><g stroke-linecap="round" transform="translate(1338.821685458127 443.151450100245) rotate(88.90356391600696 192 21)"><path d="M10.5 0 C131.66 0.86, 255.06 0.93, 373.5 0 M10.5 0 C92.56 -1.27, 176.21 -1.63, 373.5 0 M373.5 0 C380.5 1.86, 383.33 1.93, 384 10.5 M373.5 0 C381.3 1.45, 385.9 3.03, 384 10.5 M384 10.5 C385.76 17.13, 382.48 24.81, 384 31.5 M384 10.5 C383.55 18.34, 384.98 26.63, 384 31.5 M384 31.5 C383.36 38.02, 381.95 40.51, 373.5 42 M384 31.5 C382.89 38.17, 381.93 40.8, 373.5 42 M373.5 42 C252.4 39.36, 130.66 39.33, 10.5 42 M373.5 42 C266.23 42.42, 158.34 42.14, 10.5 42 M10.5 42 C3.77 43.95, -1.65 37.24, 0 31.5 M10.5 42 C4.57 43.81, -0.06 40.3, 0 31.5 M0 31.5 C2.09 25.36, 1.55 17.67, 0 10.5 M0 31.5 C-0.69 23.85, -0.79 15.49, 0 10.5 M0 10.5 C-1.51 1.57, 2.84 -0.32, 10.5 0 M0 10.5 C1.08 2.64, 5 -0.05, 10.5 0" stroke="#1e1e1e" stroke-width="2" fill="none"></path></g><g stroke-linecap="round" transform="translate(1496.696522333773 301.4193926020768) rotate(88.90356391600696 31.75 12.5)"><path d="M6.25 0 C23.31 1.35, 36.2 -2.36, 57.25 0 M6.25 0 C26.15 -0.23, 44.45 0.59, 57.25 0 M57.25 0 C60.75 -1.57, 64.2 3.34, 63.5 6.25 M57.25 0 C63.32 -0.47, 65.19 1.33, 63.5 6.25 M63.5 6.25 C62.71 8.12, 64.79 12.03, 63.5 18.75 M63.5 6.25 C64.02 9.68, 63.24 13.5, 63.5 18.75 M63.5 18.75 C64.95 21.42, 60.45 24.72, 57.25 25 M63.5 18.75 C64.93 21.71, 62.19 23.77, 57.25 25 M57.25 25 C44.53 22.84, 33.65 25.97, 6.25 25 M57.25 25 C39.94 24.11, 24.09 25.82, 6.25 25 M6.25 25 C0.44 23.74, 0.93 24.49, 0 18.75 M6.25 25 C2.02 26.8, 0.64 21.73, 0 18.75 M0 18.75 C0.78 15.98, 0.88 12.32, 0 6.25 M0 18.75 C-0.49 15.66, -0.37 12.01, 0 6.25 M0 6.25 C-0.66 1.76, 3.02 -0.74, 6.25 0 M0 6.25 C1.5 2.04, 3.73 0.42, 6.25 0" stroke="#1e1e1e" stroke-width="2" fill="none"></path></g><g stroke-linecap="round" transform="translate(1498.6172232288945 375.6462301210743) rotate(88.90356391600696 31.75 12.5)"><path d="M6.25 0 C24.3 -2.4, 46.74 -2.19, 57.25 0 M6.25 0 C25 0.87, 43.41 -0.84, 57.25 0 M57.25 0 C62.11 1.26, 65.15 1.68, 63.5 6.25 M57.25 0 C63.1 -0.75, 61.62 4.19, 63.5 6.25 M63.5 6.25 C64.59 9.56, 63.36 11.6, 63.5 18.75 M63.5 6.25 C63.42 9.3, 64.07 12.18, 63.5 18.75 M63.5 18.75 C62.53 22.63, 62.66 23.95, 57.25 25 M63.5 18.75 C64.27 21.69, 59.82 25.03, 57.25 25 M57.25 25 C46.15 25.95, 35.74 24.89, 6.25 25 M57.25 25 C43.58 25.6, 28.82 23.99, 6.25 25 M6.25 25 C3.01 26.57, -0.05 24.48, 0 18.75 M6.25 25 C2.72 23.82, -1.87 25.19, 0 18.75 M0 18.75 C0.91 13.58, -0.77 9.26, 0 6.25 M0 18.75 C-0.35 13.97, -0.09 10.3, 0 6.25 M0 6.25 C0.94 1.34, 3.39 -0.04, 6.25 0 M0 6.25 C1.64 2.5, 0.34 1.38, 6.25 0" stroke="#1e1e1e" stroke-width="2" fill="none"></path></g><g stroke-linecap="round" transform="translate(1499.4950529032512 447.6426148571341) rotate(88.90356391600696 31.75 12.5)"><path d="M6.25 0 C27.55 -1.24, 47.22 2.1, 57.25 0 M6.25 0 C21.79 -1.26, 38.35 0.15, 57.25 0 M57.25 0 C63.07 -0.41, 64.97 1.43, 63.5 6.25 M57.25 0 C59.54 2.11, 62.11 0.41, 63.5 6.25 M63.5 6.25 C63.57 8.51, 63.07 13.2, 63.5 18.75 M63.5 6.25 C63.91 8.99, 63.16 12.58, 63.5 18.75 M63.5 18.75 C64.75 21.87, 62.09 23.93, 57.25 25 M63.5 18.75 C61.9 22.95, 59.49 23.9, 57.25 25 M57.25 25 C46.89 25.69, 34.88 24.04, 6.25 25 M57.25 25 C44.91 24.87, 34.69 26.28, 6.25 25 M6.25 25 C2.03 26.56, 0.56 21.89, 0 18.75 M6.25 25 C0.22 27.28, 0.85 24.57, 0 18.75 M0 18.75 C-0.78 13.97, 0.32 10.13, 0 6.25 M0 18.75 C-0.11 14.94, 0.39 11.11, 0 6.25 M0 6.25 C1.31 2.04, 3.51 0.36, 6.25 0 M0 6.25 C-1.74 3.47, 1.08 0.15, 6.25 0" stroke="#1e1e1e" stroke-width="2" fill="none"></path></g><g stroke-linecap="round" transform="translate(1502.054392825764 529.1085573064854) rotate(88.90356391600696 31.75 12.5)"><path d="M6.25 0 C17.94 2.05, 27.16 0.44, 57.25 0 M6.25 0 C26.65 1.03, 47.17 0.2, 57.25 0 M57.25 0 C62.88 -0.66, 61.87 3.92, 63.5 6.25 M57.25 0 C60.02 -1.67, 61.93 4.25, 63.5 6.25 M63.5 6.25 C62.94 11.48, 62.96 13.99, 63.5 18.75 M63.5 6.25 C63.29 9.61, 63.98 12.83, 63.5 18.75 M63.5 18.75 C64.17 21.85, 60.03 25.03, 57.25 25 M63.5 18.75 C61.57 21.81, 59.43 24.9, 57.25 25 M57.25 25 C37.81 23.77, 18.05 25.35, 6.25 25 M57.25 25 C37.45 25.47, 16.69 25.46, 6.25 25 M6.25 25 C2.64 23.97, -1.62 24.9, 0 18.75 M6.25 25 C2.94 26.65, -0.07 24.76, 0 18.75 M0 18.75 C0.49 14.76, 0.02 12.22, 0 6.25 M0 18.75 C0.33 15.98, 0.45 13.66, 0 6.25 M0 6.25 C1.43 2.45, 0.57 1.2, 6.25 0 M0 6.25 C-1 2.23, 2.91 -1.77, 6.25 0" stroke="#1e1e1e" stroke-width="2" fill="none"></path></g><g stroke-linecap="round" transform="translate(1504.0181480373403 605.5849828601754) rotate(88.90356391600696 31.75 12.5)"><path d="M6.25 0 C17.35 -0.41, 29.85 -1.08, 57.25 0 M6.25 0 C18.37 -0.52, 29.57 -0.65, 57.25 0 M57.25 0 C59.78 1.83, 62.29 0.63, 63.5 6.25 M57.25 0 C59.84 2.17, 64.08 1.99, 63.5 6.25 M63.5 6.25 C62.91 8.97, 63.15 13.39, 63.5 18.75 M63.5 6.25 C63.83 8.74, 63.65 11.55, 63.5 18.75 M63.5 18.75 C62.11 22.95, 59.74 24.04, 57.25 25 M63.5 18.75 C61.51 22.82, 63.02 25.61, 57.25 25 M57.25 25 C39.62 24.93, 26.91 23.02, 6.25 25 M57.25 25 C45.14 26.18, 33.36 24.89, 6.25 25 M6.25 25 C0.46 26.98, 0.74 24.36, 0 18.75 M6.25 25 C2.01 26.85, -1.76 21.66, 0 18.75 M0 18.75 C-0.09 15.12, -1.25 12.96, 0 6.25 M0 18.75 C0.35 15.19, 0.39 11.77, 0 6.25 M0 6.25 C-1.52 3.29, 1.21 0.13, 6.25 0 M0 6.25 C0.83 0.31, 2.75 -0.09, 6.25 0" stroke="#1e1e1e" stroke-width="2" fill="none"></path></g><g stroke-linecap="round" transform="translate(993.6675262948106 165.5878622903066) rotate(0 63.5 25)"><path d="M12.5 0 C35.64 0.58, 56.38 -0.12, 114.5 0 M12.5 0 C42.79 1.24, 73.63 -0.33, 114.5 0 M114.5 0 C123.35 1.24, 128.61 4.87, 127 12.5 M114.5 0 C123.66 1.67, 126.68 5.03, 127 12.5 M127 12.5 C126.91 18.31, 125.49 24.64, 127 37.5 M127 12.5 C127.17 17.56, 127.91 24.4, 127 37.5 M127 37.5 C128.77 44.38, 120.89 51.49, 114.5 50 M127 37.5 C125 47.39, 124.68 50.26, 114.5 50 M114.5 50 C82.35 50.36, 54.59 51.31, 12.5 50 M114.5 50 C85.16 50.58, 56.84 48.94, 12.5 50 M12.5 50 C2.8 51.89, 0.51 45.75, 0 37.5 M12.5 50 C3.01 48.99, 2.14 44.84, 0 37.5 M0 37.5 C-1.43 29.83, -0.23 25.34, 0 12.5 M0 37.5 C-0.78 31.32, -0.92 24.64, 0 12.5 M0 12.5 C-1.73 4.08, 5.56 0.53, 12.5 0 M0 12.5 C0.38 3.49, 2.65 -1.71, 12.5 0" stroke="#1e1e1e" stroke-width="2" fill="none"></path></g><g transform="translate(1005.2015855545787 177.8077940724708) rotate(0 54.141666412353516 12.5)"><text x="0" y="17.52" font-family="Virgil, Segoe UI Emoji" font-size="20px" fill="#1e1e1e" text-anchor="start" style="white-space: pre;" direction="ltr" dominant-baseline="alphabetic">train model</text></g><g stroke-linecap="round" transform="translate(1175.1504095848695 166.40516500566588) rotate(0 112.15164327932962 25)"><path d="M12.5 0 C73.23 -0.7, 136.73 -0.18, 211.8 0 M12.5 0 C64 -2.34, 114.51 -0.94, 211.8 0 M211.8 0 C221.75 0.7, 225.02 5.62, 224.3 12.5 M211.8 0 C219.82 0.87, 223.7 3.38, 224.3 12.5 M224.3 12.5 C222.88 19.76, 222.79 30.84, 224.3 37.5 M224.3 12.5 C225.15 22.67, 225.21 30.76, 224.3 37.5 M224.3 37.5 C222.36 47.32, 218.4 51.35, 211.8 50 M224.3 37.5 C226.15 46.09, 220.13 52.14, 211.8 50 M211.8 50 C159.95 52.35, 105.17 52.16, 12.5 50 M211.8 50 C157.95 51.1, 104.62 52.77, 12.5 50 M12.5 50 C4.68 49.92, -1.01 44.95, 0 37.5 M12.5 50 C6.31 49.01, -0.73 45.29, 0 37.5 M0 37.5 C-0.1 29.44, -0.86 19.56, 0 12.5 M0 37.5 C-0.67 30.86, -0.69 25.13, 0 12.5 M0 12.5 C1.39 4.7, 4.5 -0.59, 12.5 0 M0 12.5 C-1.51 2.46, 4.47 2.24, 12.5 0" stroke="#1e1e1e" stroke-width="2" fill="none"></path></g><g transform="translate(1201.7681057668951 179.96382870267968) rotate(0 88.78333282470703 12.5)"><text x="0" y="17.52" font-family="Virgil, Segoe UI Emoji" font-size="20px" fill="#1e1e1e" text-anchor="start" style="white-space: pre;" direction="ltr" dominant-baseline="alphabetic">change to model Y</text></g><g stroke-linecap="round" transform="translate(1444.8852732680652 165.5878622903066) rotate(0 73.23032865586583 25)"><path d="M12.5 0 C53.14 0.52, 93.02 0.08, 133.96 0 M12.5 0 C58.67 1.58, 105.13 1.31, 133.96 0 M133.96 0 C143.01 1.45, 146.18 4.92, 146.46 12.5 M133.96 0 C141.69 -0.79, 147.67 4.16, 146.46 12.5 M146.46 12.5 C144.77 19.42, 147.88 25.06, 146.46 37.5 M146.46 12.5 C147.55 17.91, 145.69 25.51, 146.46 37.5 M146.46 37.5 C144.72 47.19, 143.9 50.23, 133.96 50 M146.46 37.5 C146.46 47.97, 141.52 48.19, 133.96 50 M133.96 50 C92.88 52.47, 51.96 49.37, 12.5 50 M133.96 50 C85.71 50.06, 39.09 49.08, 12.5 50 M12.5 50 C3.16 49.12, 1.86 44.97, 0 37.5 M12.5 50 C3.43 49.45, 1.66 44.12, 0 37.5 M0 37.5 C-1.01 31.88, -1.03 23.53, 0 12.5 M0 37.5 C-0.65 29.92, 0.91 22.69, 0 12.5 M0 12.5 C0.33 3.58, 2.85 -1.49, 12.5 0 M0 12.5 C0.31 6.41, 2.27 -1.45, 12.5 0" stroke="#1e1e1e" stroke-width="2" fill="none"></path></g><g transform="translate(1470.2138146480129 179.86231454958914) rotate(0 54.141666412353516 12.5)"><text x="0" y="17.52" font-family="Virgil, Segoe UI Emoji" font-size="20px" fill="#1e1e1e" text-anchor="start" style="white-space: pre;" direction="ltr" dominant-baseline="alphabetic">train model</text></g><g stroke-linecap="round"><g transform="translate(323.78142829694116 216.1848716437712) rotate(0 78.35475180776189 199.2156761648324)"><path d="M-0.76 -1.02 C25.24 65.54, 129.79 332.73, 156.13 399.25 M1.04 1.06 C27.44 67.3, 132.57 331.2, 158.54 397.56" stroke="#1e1e1e" stroke-width="2" fill="none"></path></g><g transform="translate(323.78142829694116 216.1848716437712) rotate(0 78.35475180776189 199.2156761648324)"><path d="M141.95 378.86 C145.33 383.75, 153.49 391.45, 158.54 397.56 M141.95 378.86 C145.87 383.71, 151.08 388.49, 158.54 397.56" stroke="#1e1e1e" stroke-width="2" fill="none"></path></g><g transform="translate(323.78142829694116 216.1848716437712) rotate(0 78.35475180776189 199.2156761648324)"><path d="M157.85 372.57 C156.34 379.29, 159.62 388.92, 158.54 397.56 M157.85 372.57 C157.4 379.12, 158.26 385.62, 158.54 397.56" stroke="#1e1e1e" stroke-width="2" fill="none"></path></g></g><mask></mask><g stroke-linecap="round"><g transform="translate(175.26588565477823 276.61533382230647) rotate(0 -1.024245121669992 -24.581882920082137)"><path d="M-0.2 0.41 C-0.56 -7.81, -1.35 -41.2, -1.63 -49.48 M0.69 0.15 C0.26 -7.99, -1.37 -40.8, -1.85 -48.94" stroke="#1e1e1e" stroke-width="2" fill="none"></path></g><g transform="translate(175.26588565477823 276.61533382230647) rotate(0 -1.024245121669992 -24.581882920082137)"><path d="M7.8 -26.31 C4.86 -34.29, -0.17 -43.55, -1.85 -48.94 M7.8 -26.31 C4.48 -33.06, 1.81 -39.39, -1.85 -48.94" stroke="#1e1e1e" stroke-width="2" fill="none"></path></g><g transform="translate(175.26588565477823 276.61533382230647) rotate(0 -1.024245121669992 -24.581882920082137)"><path d="M-9.01 -25.4 C-5.47 -33.7, -4.04 -43.31, -1.85 -48.94 M-9.01 -25.4 C-7.5 -32.49, -5.34 -39.08, -1.85 -48.94" stroke="#1e1e1e" stroke-width="2" fill="none"></path></g></g><mask></mask><g stroke-linecap="round"><g transform="translate(473.3212160607741 282.76080455232704) rotate(0 2.0484902433402112 -27.654618285092425)"><path d="M-0.52 -0.92 C0.18 -10.22, 3.48 -46.92, 4.25 -55.94 M1.41 1.21 C1.96 -7.93, 3.06 -45.59, 3.38 -54.73" stroke="#1e1e1e" stroke-width="2" fill="none"></path></g><g transform="translate(473.3212160607741 282.76080455232704) rotate(0 2.0484902433402112 -27.654618285092425)"><path d="M11.17 -30.97 C7.29 -37.99, 5.41 -45.47, 3.38 -54.73 M11.17 -30.97 C8.16 -38.78, 6.89 -46.19, 3.38 -54.73" stroke="#1e1e1e" stroke-width="2" fill="none"></path></g><g transform="translate(473.3212160607741 282.76080455232704) rotate(0 2.0484902433402112 -27.654618285092425)"><path d="M-5.92 -31.52 C-4.6 -38.29, -1.28 -45.61, 3.38 -54.73 M-5.92 -31.52 C-3.42 -39.11, 0.82 -46.35, 3.38 -54.73" stroke="#1e1e1e" stroke-width="2" fill="none"></path></g></g><mask></mask><g stroke-linecap="round"><g transform="translate(771.3765464667699 270.46986309228595) rotate(0 0 -23.045515237577007)"><path d="M0.2 -0.03 C0.19 -7.73, -0.07 -38.34, -0.04 -46.04 M-0.37 -0.51 C-0.45 -8.13, -0.6 -37.79, -0.49 -45.31" stroke="#1e1e1e" stroke-width="2" fill="none"></path></g><g transform="translate(771.3765464667699 270.46986309228595) rotate(0 0 -23.045515237577007)"><path d="M7.33 -23.63 C4.9 -30.19, 2.7 -35.87, -0.49 -45.31 M7.33 -23.63 C4.91 -29.19, 3.13 -35.95, -0.49 -45.31" stroke="#1e1e1e" stroke-width="2" fill="none"></path></g><g transform="translate(771.3765464667699 270.46986309228595) rotate(0 0 -23.045515237577007)"><path d="M-8.44 -23.68 C-6.13 -30.26, -3.6 -35.91, -0.49 -45.31 M-8.44 -23.68 C-6.45 -29.28, -3.84 -36.03, -0.49 -45.31" stroke="#1e1e1e" stroke-width="2" fill="none"></path></g></g><mask></mask><g stroke-linecap="round"><g transform="translate(1053.043954926045 278.6638240656467) rotate(0 -0.5121225608352233 -27.142495724257373)"><path d="M-0.31 -0.05 C-0.39 -8.99, 0.1 -45.13, -0.13 -54.15 M1.72 -1.11 C1.54 -9.79, 0.15 -43.92, -0.61 -52.55" stroke="#1e1e1e" stroke-width="2" fill="none"></path></g><g transform="translate(1053.043954926045 278.6638240656467) rotate(0 -0.5121225608352233 -27.142495724257373)"><path d="M9.34 -29.61 C6.1 -35.67, 3.13 -45.79, -0.61 -52.55 M9.34 -29.61 C5.61 -36.67, 2.69 -43.38, -0.61 -52.55" stroke="#1e1e1e" stroke-width="2" fill="none"></path></g><g transform="translate(1053.043954926045 278.6638240656467) rotate(0 -0.5121225608352233 -27.142495724257373)"><path d="M-7.73 -28.58 C-5.37 -34.93, -2.74 -45.39, -0.61 -52.55 M-7.73 -28.58 C-6.24 -35.99, -3.93 -43.02, -0.61 -52.55" stroke="#1e1e1e" stroke-width="2" fill="none"></path></g></g><mask></mask><g stroke-linecap="round"><g transform="translate(1293.7415585185163 270.46986309228595) rotate(0 1.024245121669992 -24.069760359247084)"><path d="M-0.43 0.47 C0.01 -7.52, 2.11 -40.29, 2.44 -48.4 M0.34 0.24 C0.77 -7.65, 1.83 -39.86, 2.2 -47.84" stroke="#1e1e1e" stroke-width="2" fill="none"></path></g><g transform="translate(1293.7415585185163 270.46986309228595) rotate(0 1.024245121669992 -24.069760359247084)"><path d="M9.56 -24.9 C8.63 -30.06, 5.42 -37.56, 2.2 -47.84 M9.56 -24.9 C6.94 -31.67, 5.03 -38.23, 2.2 -47.84" stroke="#1e1e1e" stroke-width="2" fill="none"></path></g><g transform="translate(1293.7415585185163 270.46986309228595) rotate(0 1.024245121669992 -24.069760359247084)"><path d="M-6.91 -25.54 C-3.64 -30.48, -2.66 -37.82, 2.2 -47.84 M-6.91 -25.54 C-4.79 -32.17, -1.97 -38.55, 2.2 -47.84" stroke="#1e1e1e" stroke-width="2" fill="none"></path></g></g><mask></mask><g stroke-linecap="round"><g transform="translate(1528.2936913809672 280.71231430898683) rotate(0 -5.633348169185865 -28.16674084592745)"><path d="M1.06 0.7 C-0.88 -8.31, -8.41 -45.66, -10.56 -55.16 M0.16 0.02 C-1.97 -9.19, -8.96 -47.51, -11.14 -56.67" stroke="#1e1e1e" stroke-width="2" fill="none"></path></g><g transform="translate(1528.2936913809672 280.71231430898683) rotate(0 -5.633348169185865 -28.16674084592745)"><path d="M1.98 -35.39 C-1.75 -42.36, -6.06 -52.74, -11.14 -56.67 M1.98 -35.39 C-1.43 -40.89, -6.62 -48.41, -11.14 -56.67" stroke="#1e1e1e" stroke-width="2" fill="none"></path></g><g transform="translate(1528.2936913809672 280.71231430898683) rotate(0 -5.633348169185865 -28.16674084592745)"><path d="M-14.77 -31.94 C-11.97 -40.4, -9.76 -52.12, -11.14 -56.67 M-14.77 -31.94 C-13.12 -38.51, -13.22 -47.08, -11.14 -56.67" stroke="#1e1e1e" stroke-width="2" fill="none"></path></g></g><mask></mask><g stroke-linecap="round"><g transform="translate(1380.8023938604738 223.35458749546183) rotate(0 71.18503595607126 186.9247347047913)"><path d="M-0.96 0.83 C22.84 62.77, 119.52 310.4, 143.48 372.74 M0.74 0.22 C24.42 62.77, 119.52 311.56, 143.12 373.7" stroke="#1e1e1e" stroke-width="2" fill="none"></path></g><g transform="translate(1380.8023938604738 223.35458749546183) rotate(0 71.18503595607126 186.9247347047913)"><path d="M126.76 354.79 C134.14 363.5, 136.74 369.16, 143.12 373.7 M126.76 354.79 C132.9 362.71, 139.44 368.53, 143.12 373.7" stroke="#1e1e1e" stroke-width="2" fill="none"></path></g><g transform="translate(1380.8023938604738 223.35458749546183) rotate(0 71.18503595607126 186.9247347047913)"><path d="M142.74 348.7 C144.49 359.46, 141.39 367.28, 143.12 373.7 M142.74 348.7 C142.69 358.81, 143.1 366.96, 143.12 373.7" stroke="#1e1e1e" stroke-width="2" fill="none"></path></g></g><mask></mask><g stroke-linecap="round"><g transform="translate(1106.3047012528891 223.35458749546183) rotate(0 96.27904143698902 186.9247347047913)"><path d="M-0.25 0.5 C32.03 63.19, 160.55 312.79, 192.62 374.96 M1.81 -0.28 C34.04 62.21, 160.14 310.92, 191.71 373.42" stroke="#1e1e1e" stroke-width="2" fill="none"></path></g><g transform="translate(1106.3047012528891 223.35458749546183) rotate(0 96.27904143698902 186.9247347047913)"><path d="M173.47 356.32 C177.94 360.03, 182.76 362.85, 191.71 373.42 M173.47 356.32 C178.02 361.78, 182.65 366.35, 191.71 373.42" stroke="#1e1e1e" stroke-width="2" fill="none"></path></g><g transform="translate(1106.3047012528891 223.35458749546183) rotate(0 96.27904143698902 186.9247347047913)"><path d="M188.72 348.6 C189.94 353.89, 191.57 358.31, 191.71 373.42 M188.72 348.6 C189.06 356.02, 189.52 362.7, 191.71 373.42" stroke="#1e1e1e" stroke-width="2" fill="none"></path></g></g><mask></mask><g stroke-linecap="round"><g transform="translate(916.8193537439229 222.33034237379178) rotate(0 64.01532010438063 187.94897982646137)"><path d="M0.75 -1.1 C21.86 61.57, 106.01 312.55, 127.08 375.35 M-0.31 0.94 C21.13 63.83, 107.64 313.93, 129.3 376.59" stroke="#1e1e1e" stroke-width="2" fill="none"></path></g><g transform="translate(916.8193537439229 222.33034237379178) rotate(0 64.01532010438063 187.94897982646137)"><path d="M113.54 357.19 C116.91 362.05, 123.13 368.75, 129.3 376.59 M113.54 357.19 C118.46 362.95, 121.97 368.95, 129.3 376.59" stroke="#1e1e1e" stroke-width="2" fill="none"></path></g><g transform="translate(916.8193537439229 222.33034237379178) rotate(0 64.01532010438063 187.94897982646137)"><path d="M129.7 351.6 C127.59 358.45, 128.37 367.03, 129.3 376.59 M129.7 351.6 C130.06 358.94, 128.98 366.53, 129.3 376.59" stroke="#1e1e1e" stroke-width="2" fill="none"></path></g></g><mask></mask><g stroke-linecap="round"><g transform="translate(546.0426196993508 219.25760700878146) rotate(0 112.66696338370957 188.46110238729642)"><path d="M0.42 -0.3 C38.16 62.85, 188 315.26, 225.59 378.05 M-0.83 -1.51 C36.86 61.42, 187.05 313.35, 224.78 376.52" stroke="#1e1e1e" stroke-width="2" fill="none"></path></g><g transform="translate(546.0426196993508 219.25760700878146) rotate(0 112.66696338370957 188.46110238729642)"><path d="M205.4 360.73 C209.15 364.65, 215.91 368.84, 224.78 376.52 M205.4 360.73 C209.75 364.4, 214.9 370, 224.78 376.52" stroke="#1e1e1e" stroke-width="2" fill="none"></path></g><g transform="translate(546.0426196993508 219.25760700878146) rotate(0 112.66696338370957 188.46110238729642)"><path d="M220.08 351.96 C220.45 357.92, 223.9 364.08, 224.78 376.52 M220.08 351.96 C220.59 357.84, 221.89 365.74, 224.78 376.52" stroke="#1e1e1e" stroke-width="2" fill="none"></path></g></g><mask></mask></svg>
